<svg width="30" height="24" viewBox="0 0 30 24" fill="none" xmlns="http://www.w3.org/2000/svg">
<path d="M17.5122 13.7166C16.7932 13.7166 16.1037 14.0018 15.5953 14.5095C15.0869 15.0172 14.8013 15.7058 14.8013 16.4238V16.6043C14.8013 16.6043 14.8013 22.3797 22.392 22.3797H22.4093C30 22.3797 30 16.6043 30 16.6043V16.4238C30 15.7059 29.7145 15.0175 29.2062 14.5098C28.698 14.0021 28.0086 13.7168 27.2898 13.7166H17.5122Z" fill="url(#paint0_linear_525_1854)"/>
<path d="M17.5122 13.7166C16.7932 13.7166 16.1037 14.0018 15.5953 14.5095C15.0869 15.0172 14.8013 15.7058 14.8013 16.4238V16.6043C14.8013 16.6043 14.8013 22.3797 22.392 22.3797H22.4093C30 22.3797 30 16.6043 30 16.6043V16.4238C30 15.7059 29.7145 15.0175 29.2062 14.5098C28.698 14.0021 28.0086 13.7168 27.2898 13.7166H17.5122Z" fill="url(#paint1_radial_525_1854)" fill-opacity="0.5"/>
<path d="M2.71096 13.7166C1.99197 13.7166 1.30243 14.0018 0.794022 14.5095C0.285618 15.0172 0 15.7058 0 16.4238V17.3262C0 17.3262 0 23.8235 9.39799 23.8235C18.796 23.8235 18.796 17.3262 18.796 17.3262V16.4238C18.796 15.7058 18.5104 15.0172 18.002 14.5095C17.4936 14.0018 16.804 13.7166 16.085 13.7166H2.71096Z" fill="url(#paint2_linear_525_1854)"/>
<path d="M2.71096 13.7166C1.99197 13.7166 1.30243 14.0018 0.794022 14.5095C0.285618 15.0172 0 15.7058 0 16.4238V17.3262C0 17.3262 0 23.8235 9.39799 23.8235C18.796 23.8235 18.796 17.3262 18.796 17.3262V16.4238C18.796 15.7058 18.5104 15.0172 18.002 14.5095C17.4936 14.0018 16.804 13.7166 16.085 13.7166H2.71096Z" fill="url(#paint3_linear_525_1854)"/>
<path d="M22.4103 11.5507C23.5607 11.5507 24.6639 11.0944 25.4774 10.2821C26.2908 9.46974 26.7478 8.368 26.7478 7.2192C26.7478 6.0704 26.2908 4.96865 25.4774 4.15633C24.6639 3.34401 23.5607 2.88765 22.4103 2.88765C21.2599 2.88765 20.1566 3.34401 19.3432 4.15633C18.5297 4.96865 18.0728 6.0704 18.0728 7.2192C18.0728 8.368 18.5297 9.46974 19.3432 10.2821C20.1566 11.0944 21.2599 11.5507 22.4103 11.5507Z" fill="url(#paint4_linear_525_1854)"/>
<path d="M9.39764 11.5508C10.9315 11.5508 12.4025 10.9423 13.4871 9.85922C14.5717 8.77612 15.181 7.30713 15.181 5.7754C15.181 4.24367 14.5717 2.77467 13.4871 1.69157C12.4025 0.608477 10.9315 0 9.39764 0C7.86379 0 6.39276 0.608477 5.30817 1.69157C4.22358 2.77467 3.61426 4.24367 3.61426 5.7754C3.61426 7.30713 4.22358 8.77612 5.30817 9.85922C6.39276 10.9423 7.86379 11.5508 9.39764 11.5508Z" fill="url(#paint5_linear_525_1854)"/>
<defs>
<linearGradient id="paint0_linear_525_1854" x1="18.4152" y1="14.8681" x2="21.5226" y2="23.5736" gradientUnits="userSpaceOnUse">
<stop offset="0.125" stop-color="#9C6CFE"/>
<stop offset="1" stop-color="#7A41DC"/>
</linearGradient>
<radialGradient id="paint1_radial_525_1854" cx="0" cy="0" r="1" gradientTransform="matrix(10.0026 -1.26337 1.28312 10.1309 12.8732 18.0481)" gradientUnits="userSpaceOnUse">
<stop offset="0.392" stop-color="#3B148A"/>
<stop offset="1" stop-color="#3B148A" stop-opacity="0"/>
</radialGradient>
<linearGradient id="paint2_linear_525_1854" x1="4.46983" y1="15.0601" x2="7.93342" y2="25.3446" gradientUnits="userSpaceOnUse">
<stop offset="0.125" stop-color="#BD96FF"/>
<stop offset="1" stop-color="#9C6CFE"/>
</linearGradient>
<linearGradient id="paint3_linear_525_1854" x1="9.39799" y1="12.5131" x2="14.2638" y2="29.422" gradientUnits="userSpaceOnUse">
<stop stop-color="#885EDB" stop-opacity="0"/>
<stop offset="1" stop-color="#E362F8"/>
</linearGradient>
<linearGradient id="paint4_linear_525_1854" x1="20.136" y1="4.03912" x2="24.5479" y2="11.0942" gradientUnits="userSpaceOnUse">
<stop offset="0.125" stop-color="#9C6CFE"/>
<stop offset="1" stop-color="#7A41DC"/>
</linearGradient>
<linearGradient id="paint5_linear_525_1854" x1="6.36498" y1="1.53553" x2="12.248" y2="10.9423" gradientUnits="userSpaceOnUse">
<stop offset="0.125" stop-color="#BD96FF"/>
<stop offset="1" stop-color="#9C6CFE"/>
</linearGradient>
</defs>
</svg>
