<svg width="25" height="24" viewBox="0 0 25 24" fill="none" xmlns="http://www.w3.org/2000/svg">
<path d="M5.68182 0H7.95455V1.09091H5.68182V0ZM17.0455 0H19.3182V1.09091H17.0455V0ZM23.8636 4.36364V3.27273H20.4545V1.09091H19.3182V6.54545H17.0455V1.09091H15.9091V3.27273H9.09091V1.09091H7.95455V6.54545H5.68182V1.09091H4.54545V3.27273H1.13636V4.36364H0V22.9091H1.13636V24H23.8636V22.9091H25V4.36364H23.8636ZM22.7273 7.63636V10.9091H19.3182V7.63636H22.7273ZM22.7273 16.3636H19.3182V13.0909H22.7273V16.3636ZM22.7273 21.8182H19.3182V18.5455H22.7273V21.8182ZM2.27273 18.5455H5.68182V21.8182H2.27273V18.5455ZM2.27273 13.0909H5.68182V16.3636H2.27273V13.0909ZM17.0455 16.3636H13.6364V13.0909H17.0455V16.3636ZM11.3636 16.3636H7.95455V13.0909H11.3636V16.3636ZM7.95455 18.5455H11.3636V21.8182H7.95455V18.5455ZM13.6364 18.5455H17.0455V21.8182H13.6364V18.5455ZM17.0455 10.9091H13.6364V7.63636H17.0455V10.9091ZM11.3636 7.63636V10.9091H7.95455V7.63636H11.3636ZM5.68182 10.9091H2.27273V7.63636H5.68182V10.9091Z" fill="#2563EB"/>
</svg>
