<svg width="54" height="48" viewBox="0 0 54 48" fill="none" xmlns="http://www.w3.org/2000/svg">
<path d="M0.958807 44V35.2727H4.15483C4.77415 35.2727 5.28693 35.375 5.69318 35.5795C6.09943 35.7812 6.40341 36.0554 6.60511 36.402C6.80682 36.7457 6.90767 37.1335 6.90767 37.5653C6.90767 37.929 6.84091 38.2358 6.70739 38.4858C6.57386 38.733 6.39489 38.9318 6.17045 39.0824C5.94886 39.2301 5.70455 39.3381 5.4375 39.4062V39.4915C5.72727 39.5057 6.00994 39.5994 6.28551 39.7727C6.56392 39.9432 6.79403 40.1861 6.97585 40.5014C7.15767 40.8168 7.24858 41.2003 7.24858 41.652C7.24858 42.098 7.14347 42.4986 6.93324 42.8537C6.72585 43.206 6.40483 43.4858 5.97017 43.6932C5.53551 43.8977 4.98011 44 4.30398 44H0.958807ZM2.27557 42.8707H4.17614C4.80682 42.8707 5.25852 42.7486 5.53125 42.5043C5.80398 42.2599 5.94034 41.9545 5.94034 41.5881C5.94034 41.3125 5.87074 41.0597 5.73153 40.8295C5.59233 40.5994 5.39347 40.4162 5.13494 40.2798C4.87926 40.1435 4.57528 40.0753 4.22301 40.0753H2.27557V42.8707ZM2.27557 39.0483H4.03977C4.33523 39.0483 4.60085 38.9915 4.83665 38.8778C5.07528 38.7642 5.2642 38.6051 5.40341 38.4006C5.54545 38.1932 5.61648 37.9489 5.61648 37.6676C5.61648 37.3068 5.49006 37.0043 5.23722 36.7599C4.98438 36.5156 4.59659 36.3935 4.07386 36.3935H2.27557V39.0483ZM11.4652 44.1321C10.8516 44.1321 10.3161 43.9915 9.85866 43.7102C9.40128 43.429 9.04616 43.0355 8.79332 42.5298C8.54048 42.0241 8.41406 41.4332 8.41406 40.7571C8.41406 40.0781 8.54048 39.4844 8.79332 38.9759C9.04616 38.4673 9.40128 38.0724 9.85866 37.7912C10.3161 37.5099 10.8516 37.3693 11.4652 37.3693C12.0788 37.3693 12.6143 37.5099 13.0717 37.7912C13.5291 38.0724 13.8842 38.4673 14.1371 38.9759C14.3899 39.4844 14.5163 40.0781 14.5163 40.7571C14.5163 41.4332 14.3899 42.0241 14.1371 42.5298C13.8842 43.0355 13.5291 43.429 13.0717 43.7102C12.6143 43.9915 12.0788 44.1321 11.4652 44.1321ZM11.4695 43.0625C11.8672 43.0625 12.1967 42.9574 12.4581 42.7472C12.7195 42.5369 12.9126 42.2571 13.0376 41.9077C13.1655 41.5582 13.2294 41.1733 13.2294 40.7528C13.2294 40.3352 13.1655 39.9517 13.0376 39.6023C12.9126 39.25 12.7195 38.9673 12.4581 38.7543C12.1967 38.5412 11.8672 38.4347 11.4695 38.4347C11.0689 38.4347 10.7365 38.5412 10.4723 38.7543C10.2109 38.9673 10.0163 39.25 9.88849 39.6023C9.76349 39.9517 9.70099 40.3352 9.70099 40.7528C9.70099 41.1733 9.76349 41.5582 9.88849 41.9077C10.0163 42.2571 10.2109 42.5369 10.4723 42.7472C10.7365 42.9574 11.0689 43.0625 11.4695 43.0625ZM18.6957 44.1321C18.082 44.1321 17.5465 43.9915 17.0891 43.7102C16.6317 43.429 16.2766 43.0355 16.0238 42.5298C15.771 42.0241 15.6445 41.4332 15.6445 40.7571C15.6445 40.0781 15.771 39.4844 16.0238 38.9759C16.2766 38.4673 16.6317 38.0724 17.0891 37.7912C17.5465 37.5099 18.082 37.3693 18.6957 37.3693C19.3093 37.3693 19.8448 37.5099 20.3022 37.7912C20.7596 38.0724 21.1147 38.4673 21.3675 38.9759C21.6204 39.4844 21.7468 40.0781 21.7468 40.7571C21.7468 41.4332 21.6204 42.0241 21.3675 42.5298C21.1147 43.0355 20.7596 43.429 20.3022 43.7102C19.8448 43.9915 19.3093 44.1321 18.6957 44.1321ZM18.6999 43.0625C19.0977 43.0625 19.4272 42.9574 19.6886 42.7472C19.9499 42.5369 20.1431 42.2571 20.2681 41.9077C20.396 41.5582 20.4599 41.1733 20.4599 40.7528C20.4599 40.3352 20.396 39.9517 20.2681 39.6023C20.1431 39.25 19.9499 38.9673 19.6886 38.7543C19.4272 38.5412 19.0977 38.4347 18.6999 38.4347C18.2994 38.4347 17.967 38.5412 17.7028 38.7543C17.4414 38.9673 17.2468 39.25 17.119 39.6023C16.994 39.9517 16.9315 40.3352 16.9315 40.7528C16.9315 41.1733 16.994 41.5582 17.119 41.9077C17.2468 42.2571 17.4414 42.5369 17.7028 42.7472C17.967 42.9574 18.2994 43.0625 18.6999 43.0625ZM24.3409 41.7798L24.3324 40.2244H24.554L27.1619 37.4545H28.6875L25.7131 40.608H25.5128L24.3409 41.7798ZM23.169 44V35.2727H24.4432V44H23.169ZM27.3026 44L24.9588 40.8892L25.8366 39.9986L28.8665 44H27.3026ZM29.8487 44V37.4545H31.1229V44H29.8487ZM30.4922 36.4446C30.2706 36.4446 30.0803 36.3707 29.9212 36.223C29.7649 36.0724 29.6868 35.8935 29.6868 35.6861C29.6868 35.4759 29.7649 35.2969 29.9212 35.1491C30.0803 34.9986 30.2706 34.9233 30.4922 34.9233C30.7138 34.9233 30.9027 34.9986 31.0589 35.1491C31.218 35.2969 31.2976 35.4759 31.2976 35.6861C31.2976 35.8935 31.218 36.0724 31.0589 36.223C30.9027 36.3707 30.7138 36.4446 30.4922 36.4446ZM34.1112 40.1136V44H32.837V37.4545H34.06V38.5199H34.141C34.2915 38.1733 34.5273 37.8949 34.8484 37.6847C35.1722 37.4744 35.5799 37.3693 36.0714 37.3693C36.5174 37.3693 36.908 37.4631 37.2433 37.6506C37.5785 37.8352 37.8384 38.1108 38.0231 38.4773C38.2077 38.8437 38.3001 39.2969 38.3001 39.8366V44H37.0259V39.9901C37.0259 39.5156 36.9023 39.1449 36.6552 38.8778C36.408 38.608 36.0685 38.473 35.6367 38.473C35.3413 38.473 35.0785 38.5369 34.8484 38.6648C34.6211 38.7926 34.4407 38.9801 34.3072 39.2273C34.1765 39.4716 34.1112 39.767 34.1112 40.1136ZM42.7532 46.5909C42.2333 46.5909 41.7859 46.5227 41.4109 46.3864C41.0387 46.25 40.7347 46.0696 40.4989 45.8452C40.2631 45.6207 40.087 45.375 39.9705 45.108L41.0657 44.6562C41.1424 44.7812 41.2447 44.9134 41.3725 45.0526C41.5032 45.1946 41.6793 45.3153 41.9009 45.4148C42.1254 45.5142 42.4137 45.5639 42.766 45.5639C43.2489 45.5639 43.6481 45.446 43.9634 45.2102C44.2788 44.9773 44.4364 44.6051 44.4364 44.0938V42.8068H44.3555C44.2788 42.946 44.168 43.1009 44.0231 43.2713C43.881 43.4418 43.685 43.5895 43.435 43.7145C43.185 43.8395 42.8597 43.902 42.4592 43.902C41.9421 43.902 41.4762 43.7812 41.0614 43.5398C40.6495 43.2955 40.3228 42.9361 40.0813 42.4616C39.8427 41.9844 39.7234 41.3977 39.7234 40.7017C39.7234 40.0057 39.8413 39.4091 40.0771 38.9119C40.3157 38.4148 40.6424 38.0341 41.0572 37.7699C41.4719 37.5028 41.9421 37.3693 42.4677 37.3693C42.8739 37.3693 43.2021 37.4375 43.4521 37.5739C43.7021 37.7074 43.8967 37.8636 44.0359 38.0426C44.1779 38.2216 44.2873 38.3793 44.364 38.5156H44.4577V37.4545H45.7063V44.1449C45.7063 44.7074 45.5756 45.169 45.3143 45.5298C45.0529 45.8906 44.6992 46.1577 44.2532 46.331C43.81 46.5043 43.31 46.5909 42.7532 46.5909ZM42.7404 42.8452C43.1069 42.8452 43.4165 42.7599 43.6694 42.5895C43.9251 42.4162 44.1183 42.169 44.2489 41.848C44.3825 41.5241 44.4492 41.1364 44.4492 40.6847C44.4492 40.2443 44.3839 39.8565 44.2532 39.5213C44.1225 39.1861 43.9308 38.9247 43.6779 38.7372C43.4251 38.5469 43.1126 38.4517 42.7404 38.4517C42.3569 38.4517 42.0373 38.5511 41.7816 38.75C41.5259 38.946 41.3327 39.2131 41.2021 39.5511C41.0742 39.8892 41.0103 40.267 41.0103 40.6847C41.0103 41.1136 41.0756 41.4901 41.2063 41.8139C41.337 42.1378 41.5302 42.3906 41.7859 42.5724C42.0444 42.7543 42.3626 42.8452 42.7404 42.8452ZM52.32 39.0526L51.1651 39.2571C51.1168 39.1094 51.0401 38.9687 50.935 38.8352C50.8327 38.7017 50.6935 38.5923 50.5174 38.5071C50.3413 38.4219 50.1211 38.3793 49.8569 38.3793C49.4961 38.3793 49.195 38.4602 48.9535 38.6222C48.712 38.7812 48.5913 38.9872 48.5913 39.2401C48.5913 39.4588 48.6722 39.6349 48.8342 39.7685C48.9961 39.902 49.2575 40.0114 49.6183 40.0966L50.658 40.3352C51.2603 40.4744 51.7092 40.6889 52.0046 40.9787C52.3001 41.2685 52.4478 41.6449 52.4478 42.108C52.4478 42.5 52.3342 42.8494 52.1069 43.1562C51.8825 43.4602 51.5685 43.6989 51.1651 43.8722C50.7646 44.0455 50.3001 44.1321 49.7717 44.1321C49.0387 44.1321 48.4407 43.9759 47.9776 43.6634C47.5146 43.348 47.2305 42.9006 47.1254 42.321L48.3569 42.1335C48.4336 42.4545 48.5913 42.6974 48.8299 42.8622C49.0685 43.0241 49.3796 43.1051 49.7631 43.1051C50.1808 43.1051 50.5146 43.0185 50.7646 42.8452C51.0146 42.669 51.1396 42.4545 51.1396 42.2017C51.1396 41.9972 51.0629 41.8253 50.9094 41.6861C50.7589 41.5469 50.5273 41.4418 50.2148 41.3707L49.1069 41.1278C48.4961 40.9886 48.0444 40.767 47.7518 40.4631C47.462 40.1591 47.3171 39.7741 47.3171 39.3082C47.3171 38.9219 47.4251 38.5838 47.641 38.294C47.8569 38.0043 48.1552 37.7784 48.5359 37.6165C48.9165 37.4517 49.3526 37.3693 49.8441 37.3693C50.5515 37.3693 51.1083 37.5227 51.5146 37.8295C51.9208 38.1335 52.1893 38.5412 52.32 39.0526Z" fill="#737373"/>
<path d="M19.6818 8H21.9545V9.09091H19.6818V8ZM31.0455 8H33.3182V9.09091H31.0455V8ZM37.8636 12.3636V11.2727H34.4545V9.09091H33.3182V14.5455H31.0455V9.09091H29.9091V11.2727H23.0909V9.09091H21.9545V14.5455H19.6818V9.09091H18.5455V11.2727H15.1364V12.3636H14V30.9091H15.1364V32H37.8636V30.9091H39V12.3636H37.8636ZM36.7273 15.6364V18.9091H33.3182V15.6364H36.7273ZM36.7273 24.3636H33.3182V21.0909H36.7273V24.3636ZM36.7273 29.8182H33.3182V26.5455H36.7273V29.8182ZM16.2727 26.5455H19.6818V29.8182H16.2727V26.5455ZM16.2727 21.0909H19.6818V24.3636H16.2727V21.0909ZM31.0455 24.3636H27.6364V21.0909H31.0455V24.3636ZM25.3636 24.3636H21.9545V21.0909H25.3636V24.3636ZM21.9545 26.5455H25.3636V29.8182H21.9545V26.5455ZM27.6364 26.5455H31.0455V29.8182H27.6364V26.5455ZM31.0455 18.9091H27.6364V15.6364H31.0455V18.9091ZM25.3636 15.6364V18.9091H21.9545V15.6364H25.3636ZM19.6818 18.9091H16.2727V15.6364H19.6818V18.9091Z" fill="#737373"/>
</svg>
