<svg width="16" height="18" viewBox="0 0 16 18" fill="none" xmlns="http://www.w3.org/2000/svg">
<path d="M10.4617 7.32881C10.4617 7.92688 10.2023 8.50045 9.74068 8.92335C9.27905 9.34625 8.65295 9.58383 8.00011 9.58383C7.34727 9.58383 6.72117 9.34625 6.25954 8.92335C5.79791 8.50045 5.53857 7.92688 5.53857 7.32881C5.53857 6.73074 5.79791 6.15717 6.25954 5.73427C6.72117 5.31137 7.34727 5.07379 8.00011 5.07379C8.65295 5.07379 9.27905 5.31137 9.74068 5.73427C10.2023 6.15717 10.4617 6.73074 10.4617 7.32881Z" fill="white"/>
<path d="M7.00677 17.0953C5.8241 16.3373 4.72513 15.4751 3.72554 14.5212C1.96923 12.8378 0 10.3111 0 7.32882C0 3.65877 3.25046 0 8 0C12.7495 0 16 3.65877 16 7.32882C16 10.3111 14.0308 12.8378 12.2745 14.5212C11.2749 15.4751 10.1759 16.3373 8.99323 17.0953C8.66954 17.3016 8.33354 17.4911 8 17.685C7.66769 17.4911 7.33046 17.3016 7.00677 17.0953ZM8 2.25502C4.74954 2.25502 2.46154 4.77162 2.46154 7.32882C2.46154 9.42035 3.87692 11.4036 5.50523 12.9619C6.27347 13.6956 7.10803 14.3684 8 14.9733C8.89193 14.3688 9.72649 13.6963 10.4948 12.963C12.1231 11.4036 13.5385 9.42148 13.5385 7.32882C13.5385 4.77162 11.2505 2.25502 8 2.25502Z" fill="white"/>
</svg>
