<svg width="38" height="48" viewBox="0 0 38 48" fill="none" xmlns="http://www.w3.org/2000/svg">
<path d="M0.958807 44V35.2727H2.27557V39.0653H6.62642V35.2727H7.94744V44H6.62642V40.1946H2.27557V44H0.958807ZM12.5199 44.1321C11.9063 44.1321 11.3707 43.9915 10.9134 43.7102C10.456 43.429 10.1009 43.0355 9.84801 42.5298C9.59517 42.0241 9.46875 41.4332 9.46875 40.7571C9.46875 40.0781 9.59517 39.4844 9.84801 38.9759C10.1009 38.4673 10.456 38.0724 10.9134 37.7912C11.3707 37.5099 11.9063 37.3693 12.5199 37.3693C13.1335 37.3693 13.669 37.5099 14.1264 37.7912C14.5838 38.0724 14.9389 38.4673 15.1918 38.9759C15.4446 39.4844 15.571 40.0781 15.571 40.7571C15.571 41.4332 15.4446 42.0241 15.1918 42.5298C14.9389 43.0355 14.5838 43.429 14.1264 43.7102C13.669 43.9915 13.1335 44.1321 12.5199 44.1321ZM12.5241 43.0625C12.9219 43.0625 13.2514 42.9574 13.5128 42.7472C13.7741 42.5369 13.9673 42.2571 14.0923 41.9077C14.2202 41.5582 14.2841 41.1733 14.2841 40.7528C14.2841 40.3352 14.2202 39.9517 14.0923 39.6023C13.9673 39.25 13.7741 38.9673 13.5128 38.7543C13.2514 38.5412 12.9219 38.4347 12.5241 38.4347C12.1236 38.4347 11.7912 38.5412 11.527 38.7543C11.2656 38.9673 11.071 39.25 10.9432 39.6023C10.8182 39.9517 10.7557 40.3352 10.7557 40.7528C10.7557 41.1733 10.8182 41.5582 10.9432 41.9077C11.071 42.2571 11.2656 42.5369 11.527 42.7472C11.7912 42.9574 12.1236 43.0625 12.5241 43.0625ZM16.9933 44V37.4545H18.2163V38.5199H18.2972C18.4336 38.1591 18.6566 37.8778 18.9663 37.6761C19.2759 37.4716 19.6467 37.3693 20.0785 37.3693C20.516 37.3693 20.8825 37.4716 21.1779 37.6761C21.4762 37.8807 21.6964 38.1619 21.8384 38.5199H21.9066C22.0629 38.1705 22.3114 37.892 22.6523 37.6847C22.9933 37.4744 23.3995 37.3693 23.8711 37.3693C24.4648 37.3693 24.9492 37.5554 25.3242 37.9276C25.7021 38.2997 25.891 38.8608 25.891 39.6108V44H24.6168V39.7301C24.6168 39.2869 24.4961 38.9659 24.2546 38.767C24.0131 38.5682 23.7248 38.4688 23.3896 38.4688C22.9748 38.4688 22.6523 38.5966 22.4222 38.8523C22.1921 39.1051 22.0771 39.4304 22.0771 39.8281V44H20.8072V39.6491C20.8072 39.294 20.6964 39.0085 20.4748 38.7926C20.2532 38.5767 19.9648 38.4688 19.6097 38.4688C19.3683 38.4688 19.1452 38.5327 18.9407 38.6605C18.739 38.7855 18.5756 38.9602 18.4506 39.1847C18.3285 39.4091 18.2674 39.669 18.2674 39.9645V44H16.9933ZM30.4197 44.1321C29.7749 44.1321 29.2195 43.9943 28.7536 43.7188C28.2905 43.4403 27.9325 43.0497 27.6797 42.5469C27.4297 42.0412 27.3047 41.4489 27.3047 40.7699C27.3047 40.0994 27.4297 39.5085 27.6797 38.9972C27.9325 38.4858 28.2848 38.0866 28.7365 37.7997C29.1911 37.5128 29.7223 37.3693 30.3303 37.3693C30.6996 37.3693 31.0575 37.4304 31.4041 37.5526C31.7507 37.6747 32.0618 37.8665 32.3374 38.1278C32.6129 38.3892 32.8303 38.7287 32.9893 39.1463C33.1484 39.5611 33.228 40.0653 33.228 40.6591V41.1108H28.0249V40.1562H31.9794C31.9794 39.821 31.9112 39.5241 31.7749 39.2656C31.6385 39.0043 31.4467 38.7983 31.1996 38.6477C30.9553 38.4972 30.6683 38.4219 30.3388 38.4219C29.9808 38.4219 29.6683 38.5099 29.4013 38.6861C29.1371 38.8594 28.9325 39.0866 28.7876 39.3679C28.6456 39.6463 28.5746 39.9489 28.5746 40.2756V41.0213C28.5746 41.4588 28.6513 41.831 28.8047 42.1378C28.9609 42.4446 29.1783 42.679 29.4567 42.8409C29.7351 43 30.0604 43.0795 30.4325 43.0795C30.674 43.0795 30.8942 43.0455 31.093 42.9773C31.2919 42.9062 31.4638 42.8011 31.6087 42.6619C31.7536 42.5227 31.8643 42.3509 31.9411 42.1463L33.147 42.3636C33.0504 42.7187 32.8771 43.0298 32.6271 43.2969C32.38 43.5611 32.0689 43.767 31.6939 43.9148C31.3217 44.0597 30.897 44.1321 30.4197 44.1321Z" fill="#737373"/>
<path d="M14.6667 29.6667V21.6667H20V29.6667H26.6667V19H30.6667L17.3333 7L4 19H8V29.6667H14.6667Z" fill="#737373"/>
</svg>
