<svg width="22" height="21" viewBox="0 0 22 21" fill="none" xmlns="http://www.w3.org/2000/svg">
<path d="M19.5556 5H17.1111C17.1111 2.2 14.4222 0 11 0C7.57778 0 4.88889 2.2 4.88889 5H2.44444C1.1 5 0 5.9 0 7V19C0 20.1 1.1 21 2.44444 21H19.5556C20.9 21 22 20.1 22 19V7C22 5.9 20.9 5 19.5556 5ZM11 2C13.0778 2 14.6667 3.3 14.6667 5H7.33333C7.33333 3.3 8.92222 2 11 2ZM19.5556 19H2.44444V7H19.5556V19ZM11 11C8.92222 11 7.33333 9.7 7.33333 8H4.88889C4.88889 10.8 7.57778 13 11 13C14.4222 13 17.1111 10.8 17.1111 8H14.6667C14.6667 9.7 13.0778 11 11 11Z" fill="#2563EB"/>
</svg>
