<svg width="26" height="26" viewBox="0 0 26 26" fill="none" xmlns="http://www.w3.org/2000/svg">
<path d="M24.1252 12.5625C24.1271 14.0806 23.8295 15.5841 23.2492 16.987C22.669 18.3898 21.8176 19.6643 20.7439 20.7375C19.6697 21.812 18.3942 22.6642 16.9904 23.2455C15.5866 23.8267 14.0821 24.1256 12.5627 24.125C10.9274 24.1286 9.31021 23.7834 7.81893 23.1125L2.98518 23.8275C2.74518 23.8667 2.49924 23.8467 2.26873 23.7692C2.03821 23.6918 1.83009 23.5592 1.66244 23.3831C1.49479 23.2069 1.37268 22.9925 1.30672 22.7585C1.24075 22.5244 1.23293 22.2778 1.28393 22.04L1.95518 17.1363C1.31667 15.6965 0.991162 14.1375 1.00018 12.5625C0.998241 11.0444 1.29591 9.54087 1.87613 8.13804C2.45636 6.73522 3.30772 5.46069 4.38143 4.3875C5.45567 3.31302 6.73114 2.4608 8.13493 1.87955C9.53873 1.2983 11.0433 0.999422 12.5627 1C15.631 1.00021 18.5736 2.21863 20.7439 4.3875C21.8171 5.4611 22.6681 6.73571 23.2483 8.13844C23.8285 9.54117 24.1264 11.0445 24.1252 12.5625Z" stroke="#2563EB" stroke-width="2" stroke-linecap="round" stroke-linejoin="round"/>
</svg>
