<svg width="30" height="30" viewBox="0 0 30 30" fill="none" xmlns="http://www.w3.org/2000/svg">
<path d="M26.5624 15C26.5644 16.5181 26.2667 18.0216 25.6865 19.4245C25.1063 20.8273 24.2549 22.1018 23.1812 23.175C22.107 24.2495 20.8315 25.1017 19.4277 25.683C18.0239 26.2642 16.5193 26.5631 14.9999 26.5625C13.3647 26.5661 11.7475 26.2209 10.2562 25.55L5.42244 26.265C5.18244 26.3042 4.9365 26.2842 4.70598 26.2067C4.47547 26.1293 4.26735 25.9967 4.0997 25.8206C3.93204 25.6444 3.80994 25.43 3.74397 25.196C3.67801 24.9619 3.67019 24.7153 3.72119 24.4775L4.39244 19.5738C3.75393 18.134 3.42842 16.575 3.43744 15C3.4355 13.4819 3.73317 11.9784 4.31339 10.5755C4.89361 9.17272 5.74498 7.89819 6.81869 6.825C7.89292 5.75052 9.1684 4.8983 10.5722 4.31705C11.976 3.7358 13.4806 3.43692 14.9999 3.4375C18.0682 3.43771 21.0109 4.65613 23.1812 6.825C24.2543 7.8986 25.1054 9.17321 25.6855 10.5759C26.2657 11.9787 26.5637 13.482 26.5624 15Z" stroke="#737373" stroke-width="2" stroke-linecap="round" stroke-linejoin="round"/>
</svg>
