<svg width="38" height="48" viewBox="0 0 38 48" fill="none" xmlns="http://www.w3.org/2000/svg">
<path d="M0.958807 44V35.2727H4.0696C4.74858 35.2727 5.31108 35.3963 5.7571 35.6435C6.20313 35.8906 6.53693 36.2287 6.75852 36.6577C6.98011 37.0838 7.09091 37.5639 7.09091 38.098C7.09091 38.6349 6.97869 39.1179 6.75426 39.5469C6.53267 39.973 6.19744 40.3111 5.74858 40.5611C5.30256 40.8082 4.74148 40.9318 4.06534 40.9318H1.92614V39.8153H3.94602C4.375 39.8153 4.72301 39.7415 4.99006 39.5938C5.2571 39.4432 5.45312 39.2386 5.57812 38.9801C5.70312 38.7216 5.76562 38.4276 5.76562 38.098C5.76562 37.7685 5.70312 37.4759 5.57812 37.2202C5.45312 36.9645 5.25568 36.7642 4.9858 36.6193C4.71875 36.4744 4.36648 36.402 3.92898 36.402H2.27557V44H0.958807ZM8.53232 44V37.4545H9.76385V38.4943H9.83203C9.95135 38.142 10.1616 37.8651 10.4627 37.6634C10.7667 37.4588 11.1104 37.3565 11.494 37.3565C11.5735 37.3565 11.6673 37.3594 11.7752 37.3651C11.886 37.3707 11.9727 37.3778 12.0352 37.3864V38.6051C11.984 38.5909 11.8931 38.5753 11.7624 38.5582C11.6317 38.5384 11.5011 38.5284 11.3704 38.5284C11.0692 38.5284 10.8008 38.5923 10.565 38.7202C10.332 38.8452 10.1474 39.0199 10.011 39.2443C9.87464 39.4659 9.80646 39.7187 9.80646 40.0028V44H8.53232ZM15.6605 44.1321C15.0469 44.1321 14.5114 43.9915 14.054 43.7102C13.5966 43.429 13.2415 43.0355 12.9886 42.5298C12.7358 42.0241 12.6094 41.4332 12.6094 40.7571C12.6094 40.0781 12.7358 39.4844 12.9886 38.9759C13.2415 38.4673 13.5966 38.0724 14.054 37.7912C14.5114 37.5099 15.0469 37.3693 15.6605 37.3693C16.2741 37.3693 16.8097 37.5099 17.267 37.7912C17.7244 38.0724 18.0795 38.4673 18.3324 38.9759C18.5852 39.4844 18.7116 40.0781 18.7116 40.7571C18.7116 41.4332 18.5852 42.0241 18.3324 42.5298C18.0795 43.0355 17.7244 43.429 17.267 43.7102C16.8097 43.9915 16.2741 44.1321 15.6605 44.1321ZM15.6648 43.0625C16.0625 43.0625 16.392 42.9574 16.6534 42.7472C16.9148 42.5369 17.108 42.2571 17.233 41.9077C17.3608 41.5582 17.4247 41.1733 17.4247 40.7528C17.4247 40.3352 17.3608 39.9517 17.233 39.6023C17.108 39.25 16.9148 38.9673 16.6534 38.7543C16.392 38.5412 16.0625 38.4347 15.6648 38.4347C15.2642 38.4347 14.9318 38.5412 14.6676 38.7543C14.4063 38.9673 14.2116 39.25 14.0838 39.6023C13.9588 39.9517 13.8963 40.3352 13.8963 40.7528C13.8963 41.1733 13.9588 41.5582 14.0838 41.9077C14.2116 42.2571 14.4063 42.5369 14.6676 42.7472C14.9318 42.9574 15.2642 43.0625 15.6648 43.0625ZM23.2489 37.4545V38.4773H19.5501V37.4545H23.2489ZM20.5643 44V36.696C20.5643 36.2869 20.6538 35.9474 20.8327 35.6776C21.0117 35.4048 21.2489 35.2017 21.5444 35.0682C21.8398 34.9318 22.1609 34.8636 22.5075 34.8636C22.7631 34.8636 22.9819 34.8849 23.1637 34.9276C23.3455 34.9673 23.4805 35.0043 23.5685 35.0384L23.2702 36.0696C23.2106 36.0526 23.1339 36.0327 23.0401 36.0099C22.9464 35.9844 22.8327 35.9716 22.6992 35.9716C22.3896 35.9716 22.168 36.0483 22.0344 36.2017C21.9038 36.3551 21.8384 36.5767 21.8384 36.8665V44H20.5643ZM24.5636 44V37.4545H25.8377V44H24.5636ZM25.207 36.4446C24.9854 36.4446 24.7951 36.3707 24.636 36.223C24.4798 36.0724 24.4016 35.8935 24.4016 35.6861C24.4016 35.4759 24.4798 35.2969 24.636 35.1491C24.7951 34.9986 24.9854 34.9233 25.207 34.9233C25.4286 34.9233 25.6175 34.9986 25.7738 35.1491C25.9329 35.2969 26.0124 35.4759 26.0124 35.6861C26.0124 35.8935 25.9329 36.0724 25.7738 36.223C25.6175 36.3707 25.4286 36.4446 25.207 36.4446ZM28.826 35.2727V44H27.5518V35.2727H28.826ZM33.3612 44.1321C32.7163 44.1321 32.1609 43.9943 31.695 43.7188C31.2319 43.4403 30.8739 43.0497 30.6211 42.5469C30.3711 42.0412 30.2461 41.4489 30.2461 40.7699C30.2461 40.0994 30.3711 39.5085 30.6211 38.9972C30.8739 38.4858 31.2262 38.0866 31.6779 37.7997C32.1325 37.5128 32.6637 37.3693 33.2717 37.3693C33.641 37.3693 33.9989 37.4304 34.3455 37.5526C34.6921 37.6747 35.0032 37.8665 35.2788 38.1278C35.5543 38.3892 35.7717 38.7287 35.9308 39.1463C36.0898 39.5611 36.1694 40.0653 36.1694 40.6591V41.1108H30.9663V40.1562H34.9208C34.9208 39.821 34.8526 39.5241 34.7163 39.2656C34.5799 39.0043 34.3881 38.7983 34.141 38.6477C33.8967 38.4972 33.6097 38.4219 33.2802 38.4219C32.9222 38.4219 32.6097 38.5099 32.3427 38.6861C32.0785 38.8594 31.8739 39.0866 31.729 39.3679C31.587 39.6463 31.516 39.9489 31.516 40.2756V41.0213C31.516 41.4588 31.5927 41.831 31.7461 42.1378C31.9023 42.4446 32.1197 42.679 32.3981 42.8409C32.6765 43 33.0018 43.0795 33.3739 43.0795C33.6154 43.0795 33.8356 43.0455 34.0344 42.9773C34.2333 42.9062 34.4052 42.8011 34.5501 42.6619C34.695 42.5227 34.8058 42.3509 34.8825 42.1463L36.0884 42.3636C35.9918 42.7187 35.8185 43.0298 35.5685 43.2969C35.3214 43.5611 35.0103 43.767 34.6353 43.9148C34.2631 44.0597 33.8384 44.1321 33.3612 44.1321Z" fill="#737373"/>
<path d="M18.1291 4C21.8763 4 25.4701 5.48859 28.1198 8.13831C30.7695 10.788 32.2581 14.3818 32.2581 18.1291C32.2581 21.8763 30.7695 25.4701 28.1198 28.1198C25.4701 30.7695 21.8763 32.2581 18.1291 32.2581C14.3818 32.2581 10.788 30.7695 8.13831 28.1198C5.48859 25.4701 4 21.8763 4 18.1291C4 14.3818 5.48859 10.788 8.13831 8.13831C10.788 5.48859 14.3818 4 18.1291 4ZM18.1291 23.4091C16.6254 23.4083 15.148 23.8029 13.845 24.5532C12.542 25.3036 11.4591 26.3834 10.7051 27.6843C12.8265 29.3371 15.4398 30.2329 18.1291 30.2293C20.8179 30.2319 23.4303 29.3353 25.5509 27.6821C24.7968 26.382 23.7142 25.3028 22.4116 24.5529C21.109 23.8029 19.6321 23.4085 18.1291 23.4091ZM18.1291 6.02453C15.7839 6.02596 13.4896 6.70862 11.5251 7.98953C9.56064 9.27044 8.01056 11.0944 7.06329 13.2398C6.11602 15.3852 5.81236 17.7595 6.18922 20.0742C6.56609 22.3889 7.60724 24.5443 9.18613 26.2784C10.1452 24.7766 11.4674 23.5407 13.0305 22.6849C14.5936 21.8292 16.3471 21.3812 18.1291 21.3824C21.8859 21.3824 25.1861 23.3365 27.072 26.2763C28.6502 24.5421 29.6908 22.3869 30.0672 20.0726C30.4437 17.7582 30.1399 15.3843 29.1927 13.2394C28.2455 11.0944 26.6957 9.27073 24.7317 7.98993C22.7676 6.70913 20.4738 6.02634 18.1291 6.02453ZM18.1291 10.9952C18.7995 10.9756 19.4669 11.0908 20.092 11.3338C20.7171 11.5769 21.2871 11.9428 21.7682 12.4101C22.2493 12.8774 22.6317 13.4364 22.8929 14.0542C23.1541 14.6719 23.2886 15.3357 23.2886 16.0064C23.2886 16.6771 23.1541 17.3409 22.8929 17.9587C22.6317 18.5764 22.2493 19.1354 21.7682 19.6027C21.2871 20.07 20.7171 20.4359 20.092 20.679C19.4669 20.922 18.7995 21.0372 18.1291 21.0176C16.8176 20.9905 15.569 20.4506 14.6511 19.5135C13.7332 18.5765 13.2191 17.317 13.2191 16.0053C13.2191 14.6936 13.7332 13.4342 14.6511 12.4971C15.569 11.5601 16.8176 11.0223 18.1291 10.9952ZM18.1291 13.0176C17.337 13.0176 16.5773 13.3323 16.0172 13.8924C15.4571 14.4525 15.1424 15.2122 15.1424 16.0043C15.1424 16.7964 15.4571 17.5561 16.0172 18.1162C16.5773 18.6763 17.337 18.9909 18.1291 18.9909C18.9212 18.9909 19.6809 18.6763 20.241 18.1162C20.8011 17.5561 21.1157 16.7964 21.1157 16.0043C21.1157 15.2122 20.8011 14.4525 20.241 13.8924C19.6809 13.3323 18.9212 13.0176 18.1291 13.0176Z" fill="#737373"/>
</svg>
