<svg width="29" height="29" viewBox="0 0 29 29" fill="none" xmlns="http://www.w3.org/2000/svg">
<path d="M14.1291 0C17.8763 0 21.4701 1.48859 24.1198 4.13831C26.7695 6.78802 28.2581 10.3818 28.2581 14.1291C28.2581 17.8763 26.7695 21.4701 24.1198 24.1198C21.4701 26.7695 17.8763 28.2581 14.1291 28.2581C10.3818 28.2581 6.78802 26.7695 4.13831 24.1198C1.48859 21.4701 0 17.8763 0 14.1291C0 10.3818 1.48859 6.78802 4.13831 4.13831C6.78802 1.48859 10.3818 0 14.1291 0ZM14.1291 19.4091C12.6254 19.4083 11.148 19.8029 9.84499 20.5532C8.54197 21.3036 7.45913 22.3834 6.70507 23.6843C8.82652 25.3371 11.4398 26.2329 14.1291 26.2293C16.8179 26.2319 19.4303 25.3353 21.5509 23.6821C20.7968 22.382 19.7142 21.3028 18.4116 20.5529C17.109 19.8029 15.6321 19.4085 14.1291 19.4091ZM14.1291 2.02453C11.7839 2.02596 9.4896 2.70862 7.52512 3.98953C5.56064 5.27044 4.01056 7.09443 3.06329 9.2398C2.11602 11.3852 1.81236 13.7595 2.18922 16.0742C2.56609 18.3889 3.60724 20.5443 5.18613 22.2784C6.14525 20.7766 7.46742 19.5407 9.03049 18.6849C10.5936 17.8292 12.3471 17.3812 14.1291 17.3824C17.8859 17.3824 21.1861 19.3365 23.072 22.2763C24.6502 20.5421 25.6908 18.3869 26.0672 16.0726C26.4437 13.7582 26.1399 11.3843 25.1927 9.23937C24.2455 7.09441 22.6957 5.27073 20.7317 3.98993C18.7676 2.70913 16.4738 2.02634 14.1291 2.02453ZM14.1291 6.9952C14.7995 6.97564 15.4669 7.09078 16.092 7.33382C16.7171 7.57686 17.2871 7.94284 17.7682 8.41011C18.2493 8.87737 18.6317 9.43642 18.8929 10.0542C19.1541 10.6719 19.2886 11.3357 19.2886 12.0064C19.2886 12.6771 19.1541 13.3409 18.8929 13.9587C18.6317 14.5764 18.2493 15.1354 17.7682 15.6027C17.2871 16.07 16.7171 16.4359 16.092 16.679C15.4669 16.922 14.7995 17.0372 14.1291 17.0176C12.8176 16.9905 11.569 16.4506 10.6511 15.5135C9.73324 14.5765 9.21915 13.317 9.21915 12.0053C9.21915 10.6936 9.73324 9.43416 10.6511 8.49712C11.569 7.56009 12.8176 7.02226 14.1291 6.9952ZM14.1291 9.0176C13.337 9.0176 12.5773 9.33227 12.0172 9.89237C11.4571 10.4525 11.1424 11.2122 11.1424 12.0043C11.1424 12.7964 11.4571 13.5561 12.0172 14.1162C12.5773 14.6763 13.337 14.9909 14.1291 14.9909C14.9212 14.9909 15.6809 14.6763 16.241 14.1162C16.8011 13.5561 17.1157 12.7964 17.1157 12.0043C17.1157 11.2122 16.8011 10.4525 16.241 9.89237C15.6809 9.33227 14.9212 9.0176 14.1291 9.0176Z" fill="#2563EB"/>
</svg>
