<svg width="28" height="28" viewBox="0 0 28 28" fill="none" xmlns="http://www.w3.org/2000/svg">
<path d="M26.1667 5.16667C25.9015 5.16667 25.6471 5.06131 25.4596 4.87377C25.272 4.68624 25.1667 4.43188 25.1667 4.16667C25.1667 3.90145 25.272 3.6471 25.4596 3.45956C25.6471 3.27202 25.9015 3.16667 26.1667 3.16667C26.4319 3.16667 26.6862 3.27202 26.8738 3.45956C27.0613 3.6471 27.1667 3.90145 27.1667 4.16667C27.1667 4.43188 27.0613 4.68624 26.8738 4.87377C26.6862 5.06131 26.4319 5.16667 26.1667 5.16667ZM26.1667 5.16667V10.1667C26.1667 11.0973 26.1667 11.5627 26.052 11.94C25.9249 12.3598 25.6962 12.7417 25.3861 13.052C25.0761 13.3622 24.6943 13.5912 24.2747 13.7187C23.896 13.8333 23.4307 13.8333 22.5 13.8333M1.5 22.5C1.76522 22.5 2.01957 22.6054 2.20711 22.7929C2.39464 22.9804 2.5 23.2348 2.5 23.5C2.5 23.7652 2.39464 24.0196 2.20711 24.2071C2.01957 24.3946 1.76522 24.5 1.5 24.5C1.23478 24.5 0.980429 24.3946 0.792893 24.2071C0.605357 24.0196 0.5 23.7652 0.5 23.5C0.5 23.2348 0.605357 22.9804 0.792893 22.7929C0.980429 22.6054 1.23478 22.5 1.5 22.5ZM1.5 22.5V17.5C1.5 16.5693 1.5 16.104 1.61467 15.7267C1.7418 15.3069 1.97051 14.925 2.28053 14.6147C2.59055 14.3044 2.97232 14.0754 3.392 13.948C3.77067 13.8333 4.236 13.8333 5.16667 13.8333M5.16667 1.5C5.16667 1.76522 5.06131 2.01957 4.87377 2.20711C4.68624 2.39464 4.43188 2.5 4.16667 2.5C3.90145 2.5 3.6471 2.39464 3.45956 2.20711C3.27202 2.01957 3.16667 1.76522 3.16667 1.5C3.16667 1.23478 3.27202 0.980429 3.45956 0.792893C3.6471 0.605357 3.90145 0.5 4.16667 0.5C4.43188 0.5 4.68624 0.605357 4.87377 0.792893C5.06131 0.980429 5.16667 1.23478 5.16667 1.5ZM5.16667 1.5H10.1667C11.0973 1.5 11.5627 1.5 11.94 1.61467C12.3599 1.74192 12.742 1.97084 13.0522 2.2811C13.3625 2.59137 13.5914 2.97341 13.7187 3.39333C13.8333 3.77067 13.8333 4.236 13.8333 5.16667M22.5 26.1667C22.5 25.9015 22.6054 25.6471 22.7929 25.4596C22.9804 25.272 23.2348 25.1667 23.5 25.1667C23.7652 25.1667 24.0196 25.272 24.2071 25.4596C24.3946 25.6471 24.5 25.9015 24.5 26.1667C24.5 26.4319 24.3946 26.6862 24.2071 26.8738C24.0196 27.0613 23.7652 27.1667 23.5 27.1667C23.2348 27.1667 22.9804 27.0613 22.7929 26.8738C22.6054 26.6862 22.5 26.4319 22.5 26.1667ZM22.5 26.1667H17.5C16.5693 26.1667 16.104 26.1667 15.7267 26.052C15.3069 25.9249 14.925 25.6962 14.6147 25.3861C14.3044 25.0761 14.0754 24.6943 13.948 24.2747C13.8333 23.896 13.8333 23.4307 13.8333 22.5" fill="#2563EB"/>
<path d="M26.1667 5.16667C25.9015 5.16667 25.6471 5.06131 25.4596 4.87377C25.272 4.68624 25.1667 4.43188 25.1667 4.16667C25.1667 3.90145 25.272 3.6471 25.4596 3.45956C25.6471 3.27202 25.9015 3.16667 26.1667 3.16667C26.4319 3.16667 26.6862 3.27202 26.8738 3.45956C27.0613 3.6471 27.1667 3.90145 27.1667 4.16667C27.1667 4.43188 27.0613 4.68624 26.8738 4.87377C26.6862 5.06131 26.4319 5.16667 26.1667 5.16667ZM26.1667 5.16667V10.1667C26.1667 11.0973 26.1667 11.5627 26.052 11.94C25.9249 12.3598 25.6962 12.7417 25.3861 13.052C25.0761 13.3622 24.6943 13.5912 24.2747 13.7187C23.896 13.8333 23.4307 13.8333 22.5 13.8333M1.5 22.5C1.76522 22.5 2.01957 22.6054 2.20711 22.7929C2.39464 22.9804 2.5 23.2348 2.5 23.5C2.5 23.7652 2.39464 24.0196 2.20711 24.2071C2.01957 24.3946 1.76522 24.5 1.5 24.5C1.23478 24.5 0.980429 24.3946 0.792893 24.2071C0.605357 24.0196 0.5 23.7652 0.5 23.5C0.5 23.2348 0.605357 22.9804 0.792893 22.7929C0.980429 22.6054 1.23478 22.5 1.5 22.5ZM1.5 22.5V17.5C1.5 16.5693 1.5 16.104 1.61467 15.7267C1.7418 15.3069 1.97051 14.925 2.28053 14.6147C2.59056 14.3044 2.97232 14.0754 3.392 13.948C3.77067 13.8333 4.236 13.8333 5.16667 13.8333M5.16667 1.5C5.16667 1.76522 5.06131 2.01957 4.87377 2.20711C4.68624 2.39464 4.43188 2.5 4.16667 2.5C3.90145 2.5 3.6471 2.39464 3.45956 2.20711C3.27202 2.01957 3.16667 1.76522 3.16667 1.5C3.16667 1.23478 3.27202 0.980429 3.45956 0.792893C3.6471 0.605357 3.90145 0.5 4.16667 0.5C4.43188 0.5 4.68624 0.605357 4.87377 0.792893C5.06131 0.980429 5.16667 1.23478 5.16667 1.5ZM5.16667 1.5H10.1667C11.0973 1.5 11.5627 1.5 11.94 1.61467C12.3599 1.74192 12.742 1.97084 13.0522 2.2811C13.3625 2.59137 13.5914 2.97341 13.7187 3.39333C13.8333 3.77067 13.8333 4.236 13.8333 5.16667M22.5 26.1667C22.5 25.9015 22.6054 25.6471 22.7929 25.4596C22.9804 25.272 23.2348 25.1667 23.5 25.1667C23.7652 25.1667 24.0196 25.272 24.2071 25.4596C24.3946 25.6471 24.5 25.9015 24.5 26.1667C24.5 26.4319 24.3946 26.6862 24.2071 26.8738C24.0196 27.0613 23.7652 27.1667 23.5 27.1667C23.2348 27.1667 22.9804 27.0613 22.7929 26.8738C22.6054 26.6862 22.5 26.4319 22.5 26.1667ZM22.5 26.1667H17.5C16.5693 26.1667 16.104 26.1667 15.7267 26.052C15.3069 25.9249 14.925 25.6962 14.6147 25.3861C14.3044 25.0761 14.0754 24.6943 13.948 24.2747C13.8333 23.896 13.8333 23.4307 13.8333 22.5" stroke="black" stroke-linejoin="round"/>
<path d="M5.23206 13.768C5.23206 9.68265 5.23206 7.63998 6.50139 6.37065C7.77072 5.10132 9.81339 5.10132 13.8987 5.10132C17.9841 5.10132 20.0267 5.10132 21.2961 6.37065C22.5654 7.63998 22.5654 9.68265 22.5654 13.768C22.5654 17.8533 22.5654 19.896 21.2961 21.1653C20.0267 22.4347 17.9841 22.4347 13.8987 22.4347C9.81339 22.4347 7.77072 22.4347 6.50139 21.1653C5.23206 19.896 5.23206 17.8533 5.23206 13.768Z" fill="#2563EB" stroke="black" stroke-linejoin="round"/>
<path d="M14.4986 17.1666L12.552 11.1386C12.4845 10.9484 12.3587 10.7843 12.1926 10.6697C12.0265 10.555 11.8284 10.4956 11.6266 10.5C11.4251 10.4959 11.2273 10.5554 11.0615 10.6701C10.8956 10.7847 10.7701 10.9486 10.7026 11.1386L8.75598 17.1666M17.832 10.5V17.1666V10.5ZM9.47198 15.1666H13.7813H9.47198Z" fill="#2563EB"/>
<path d="M14.4986 17.1666L12.552 11.1386C12.4845 10.9484 12.3587 10.7843 12.1926 10.6697C12.0265 10.555 11.8284 10.4956 11.6266 10.5C11.4251 10.4959 11.2273 10.5554 11.0615 10.6701C10.8956 10.7847 10.7701 10.9486 10.7026 11.1386L8.75598 17.1666M17.832 10.5V17.1666M9.47198 15.1666H13.7813" stroke="black" stroke-linecap="round" stroke-linejoin="round"/>
</svg>
