<svg width="28" height="28" viewBox="0 0 28 28" fill="none" xmlns="http://www.w3.org/2000/svg">
<path fill-rule="evenodd" clip-rule="evenodd" d="M2.74111 6.88031C2.76511 8.09471 2.10431 9.73631 1.24511 10.5939C0.447838 11.3919 0 12.4739 0 13.6019C0 14.73 0.447838 15.8119 1.24511 16.6099C2.09311 17.4547 2.71711 18.9203 2.74111 20.1171C2.76351 21.1763 3.17791 22.2291 3.98591 23.0355C4.73137 23.7825 5.72861 24.2246 6.78271 24.2755C8.04831 24.3395 9.70591 25.0755 10.6019 25.9715C11.3999 26.7683 12.4814 27.2158 13.6091 27.2158C14.7368 27.2158 15.8183 26.7683 16.6163 25.9715C17.5123 25.0755 19.1699 24.3395 20.4355 24.2755C21.4896 24.2246 22.4868 23.7825 23.2323 23.0355C24.0095 22.2594 24.4552 21.212 24.4755 20.1139C24.4995 18.9203 25.1155 17.4643 25.9619 16.6195C26.7622 15.8217 27.2128 14.7387 27.2146 13.6087C27.2164 12.4787 26.7693 11.3942 25.9715 10.5939C25.1139 9.73791 24.4515 8.09471 24.4771 6.88191C24.4892 6.30929 24.3851 5.74017 24.1711 5.20889C23.9572 4.67761 23.6378 4.19517 23.2323 3.79071C22.812 3.36933 22.3078 3.04115 21.7523 2.82751C21.1968 2.61387 20.6026 2.51956 20.0083 2.55071C18.8659 2.60831 17.4243 2.05471 16.6163 1.24511C15.8183 0.447838 14.7364 0 13.6083 0C12.4803 0 11.3983 0.447838 10.6003 1.24511C9.79391 2.05311 8.35071 2.60831 7.20831 2.55071C6.61426 2.51979 6.02034 2.61421 5.46517 2.82784C4.91 3.04148 4.40599 3.36954 3.98591 3.79071C3.58059 4.19499 3.26134 4.67716 3.04741 5.20815C2.83347 5.73914 2.72928 6.30796 2.74111 6.88031ZM18.4659 8.20191C18.6497 8.30388 18.8116 8.44107 18.9423 8.60563C19.0731 8.77018 19.1701 8.95889 19.2279 9.16096C19.2857 9.36304 19.3031 9.57452 19.2792 9.78333C19.2552 9.99213 19.1904 10.1942 19.0883 10.3779L14.6595 18.3491C14.5448 18.5662 14.3816 18.754 14.1827 18.8979C13.8936 19.1071 13.5429 19.2136 13.1863 19.2006C12.8297 19.1875 12.4877 19.0556 12.2147 18.8259L7.80031 15.2947C7.63621 15.1634 7.49958 15.001 7.39823 14.8169C7.29687 14.6328 7.23278 14.4305 7.2096 14.2216C7.18642 14.0127 7.20462 13.8013 7.26314 13.5994C7.32167 13.3976 7.41939 13.2092 7.55071 13.0451C7.68203 12.881 7.84439 12.7444 8.02851 12.643C8.21264 12.5417 8.41492 12.4776 8.62381 12.4544C8.83271 12.4312 9.04412 12.4494 9.24599 12.5079C9.44785 12.5665 9.63621 12.6642 9.80031 12.7955L12.7651 15.1683L16.2899 8.82271C16.392 8.63906 16.5293 8.47733 16.6939 8.34674C16.8585 8.21615 17.0473 8.11927 17.2493 8.06162C17.4514 8.00397 17.6628 7.98669 17.8716 8.01076C18.0803 8.03483 18.2823 8.09978 18.4659 8.20191Z" fill="#1C9C1C"/>
</svg>
