<svg width="27" height="27" viewBox="0 0 27 27" fill="none" xmlns="http://www.w3.org/2000/svg">
<path fill-rule="evenodd" clip-rule="evenodd" d="M13.5 0C6.0444 0 0 6.0444 0 13.5C0 20.9556 6.0444 27 13.5 27C20.9556 27 27 20.9556 27 13.5C27 6.0444 20.9556 0 13.5 0ZM16.2516 9.8046L14.5656 6.5538C14.1174 5.6904 12.8826 5.6904 12.435 6.5538L10.749 9.8046L7.173 10.509C6.2598 10.689 5.8902 11.796 6.513 12.489L9.048 15.3078L8.5824 19.0806C8.4654 20.031 9.4524 20.7288 10.3092 20.3016L13.5 18.708L16.6908 20.301C17.547 20.7282 18.5346 20.0304 18.4176 19.08L17.952 15.3072L20.487 12.4878C21.1098 11.7954 20.7402 10.6878 19.827 10.5078L16.251 9.804L16.2516 9.8046Z" fill="#4684FF"/>
</svg>
