<svg width="24" height="24" viewBox="0 0 24 24" fill="none" xmlns="http://www.w3.org/2000/svg">
<path d="M3.75 1.5C3.15326 1.5 2.58097 1.73705 2.15901 2.15901C1.73705 2.58097 1.5 3.15326 1.5 3.75V6.75C1.5 6.94891 1.42098 7.13968 1.28033 7.28033C1.13968 7.42098 0.948912 7.5 0.75 7.5C0.551088 7.5 0.360322 7.42098 0.21967 7.28033C0.0790175 7.13968 4.19177e-09 6.94891 0 6.75V3.75C0 2.75544 0.395088 1.80161 1.09835 1.09835C1.80161 0.395088 2.75544 0 3.75 0H6.75C6.94891 4.19176e-09 7.13968 0.0790175 7.28033 0.21967C7.42098 0.360322 7.5 0.551088 7.5 0.75C7.5 0.948912 7.42098 1.13968 7.28033 1.28033C7.13968 1.42098 6.94891 1.5 6.75 1.5H3.75ZM3.75 22.5C3.64333 22.5 3.53833 22.4927 3.435 22.478L3.417 22.476C2.88377 22.3962 2.39692 22.1276 2.04508 21.719C1.69325 21.3105 1.49981 20.7892 1.5 20.25V17.25C1.5 17.0511 1.42098 16.8603 1.28033 16.7197C1.13968 16.579 0.948912 16.5 0.75 16.5C0.551088 16.5 0.360322 16.579 0.21967 16.7197C0.0790175 16.8603 4.19177e-09 17.0511 0 17.25V20.25C0 21.2446 0.395088 22.1984 1.09835 22.9017C1.80161 23.6049 2.75544 24 3.75 24H6.75C6.94891 24 7.13968 23.921 7.28033 23.7803C7.42098 23.6397 7.5 23.4489 7.5 23.25C7.5 23.0511 7.42098 22.8603 7.28033 22.7197C7.13968 22.579 6.94891 22.5 6.75 22.5H3.75ZM22.5 3.75C22.5 3.15326 22.2629 2.58097 21.841 2.15901C21.419 1.73705 20.8467 1.5 20.25 1.5H17.25C17.0511 1.5 16.8603 1.42098 16.7197 1.28033C16.579 1.13968 16.5 0.948912 16.5 0.75C16.5 0.551088 16.579 0.360322 16.7197 0.21967C16.8603 0.0790175 17.0511 4.19177e-09 17.25 0H20.25C21.2446 0 22.1984 0.395088 22.9017 1.09835C23.6049 1.80161 24 2.75544 24 3.75V6.75C24 6.94891 23.921 7.13968 23.7803 7.28033C23.6397 7.42098 23.4489 7.5 23.25 7.5C23.0511 7.5 22.8603 7.42098 22.7197 7.28033C22.579 7.13968 22.5 6.94891 22.5 6.75V3.75ZM20.25 22.5C20.3473 22.5 20.443 22.494 20.537 22.482L20.546 22.481C21.0868 22.4092 21.5831 22.1434 21.9426 21.733C22.302 21.3226 22.5001 20.7956 22.5 20.25V17.25C22.5 17.0511 22.579 16.8603 22.7197 16.7197C22.8603 16.579 23.0511 16.5 23.25 16.5C23.4489 16.5 23.6397 16.579 23.7803 16.7197C23.921 16.8603 24 17.0511 24 17.25V20.25C24 21.2446 23.6049 22.1984 22.9017 22.9017C22.1984 23.6049 21.2446 24 20.25 24H17.25C17.0511 24 16.8603 23.921 16.7197 23.7803C16.579 23.6397 16.5 23.4489 16.5 23.25C16.5 23.0511 16.579 22.8603 16.7197 22.7197C16.8603 22.579 17.0511 22.5 17.25 22.5H20.25ZM8.482 23H15.518C15.5781 22.5835 15.7863 22.2026 16.1044 21.9271C16.4225 21.6517 16.8292 21.5 17.25 21.5H20.25C20.512 21.5 20.755 21.42 20.956 21.282C20.9853 21.098 21 20.908 21 20.712V20.25C21 19.5207 20.7103 18.8212 20.1945 18.3055C19.6788 17.7897 18.9793 17.5 18.25 17.5H5.75C5.02065 17.5 4.32118 17.7897 3.80546 18.3055C3.28973 18.8212 3 19.5207 3 20.25V20.712C3 20.9073 3.01333 21.0963 3.04 21.279C3.241 21.419 3.486 21.5 3.75 21.5H6.75C7.17081 21.5 7.57752 21.6517 7.89561 21.9271C8.21371 22.2026 8.42189 22.5835 8.482 23ZM12 15C13.4587 15 14.8576 14.4205 15.8891 13.3891C16.9205 12.3576 17.5 10.9587 17.5 9.5C17.5 8.04131 16.9205 6.64236 15.8891 5.61091C14.8576 4.57946 13.4587 4 12 4C10.5413 4 9.14236 4.57946 8.11091 5.61091C7.07946 6.64236 6.5 8.04131 6.5 9.5C6.5 10.9587 7.07946 12.3576 8.11091 13.3891C9.14236 14.4205 10.5413 15 12 15Z" fill="white"/>
</svg>
